<svg width="30" height="20" viewBox="0 0 20 16" fill="black" xmlns="http://www.w3.org/2000/svg">
	<path d="M20 13.6V15.2C20 15.4167 19.9175 15.6042 19.7526 15.7625C19.5877 15.9208 19.3924 16 19.1667 16H0.833333C0.607639 16 0.412326 15.9208 0.247396 15.7625C0.0824653 15.6042 0 15.4167 0 15.2V13.6C0 13.3833 0.0824653 13.1958 0.247396 13.0375C0.412326 12.8792 0.607639 12.8 0.833333 12.8H19.1667C19.3924 12.8 19.5877 12.8792 19.7526 13.0375C19.9175 13.1958 20 13.3833 20 13.6ZM20 7.2V8.8C20 9.01667 19.9175 9.20417 19.7526 9.3625C19.5877 9.52083 19.3924 9.6 19.1667 9.6H0.833333C0.607639 9.6 0.412326 9.52083 0.247396 9.3625C0.0824653 9.20417 0 9.01667 0 8.8V7.2C0 6.98333 0.0824653 6.79583 0.247396 6.6375C0.412326 6.47917 0.607639 6.4 0.833333 6.4H19.1667C19.3924 6.4 19.5877 6.47917 19.7526 6.6375C19.9175 6.79583 20 6.98333 20 7.2ZM20 0.8V2.4C20 2.61667 19.9175 2.80417 19.7526 2.9625C19.5877 3.12083 19.3924 3.2 19.1667 3.2H0.833333C0.607639 3.2 0.412326 3.12083 0.247396 2.9625C0.0824653 2.80417 0 2.61667 0 2.4V0.8C0 0.583333 0.0824653 0.395833 0.247396 0.2375C0.412326 0.0791667 0.607639 0 0.833333 0H19.1667C19.3924 0 19.5877 0.0791667 19.7526 0.2375C19.9175 0.395833 20 0.583333 20 0.8Z" fill="black" />
</svg>
